<?xml version="1.0" encoding="UTF-8"?>
<svg version="1.1" xmlns="http://www.w3.org/2000/svg" width="668" height="374">
<path d="M0 0 C2.47804788 -0.00322127 4.95609557 -0.00658596 7.43414307 -0.01008606 C12.59786419 -0.01603569 17.76156867 -0.01793004 22.92529297 -0.01733398 C29.51394361 -0.01723204 36.10248727 -0.03093587 42.69111252 -0.04810619 C47.79744958 -0.05926175 52.90376095 -0.06125218 58.01010895 -0.06072426 C60.43877789 -0.06189702 62.86744766 -0.06627881 65.29610443 -0.07405663 C87.15531449 -0.1375701 107.5479258 -0.0106945 124.265625 15.91796875 C128.52916075 20.32514583 131.52667728 24.6171092 134.078125 30.16796875 C134.45710937 30.94398437 134.83609375 31.72 135.2265625 32.51953125 C138.09226509 38.59644666 139.19993042 44.05807338 139.21183777 50.80892944 C139.21823524 52.45734077 139.21823524 52.45734077 139.22476196 54.13905334 C139.22430878 55.32986008 139.22385559 56.52066681 139.22338867 57.74755859 C139.22674728 59.01330215 139.2301059 60.27904572 139.23356628 61.58314514 C139.24237304 65.04396529 139.24474298 68.50476068 139.24538207 71.96559095 C139.24609441 74.13091887 139.24823221 76.29624056 139.25087929 78.46156693 C139.26012141 86.0245122 139.26421556 93.58743989 139.26342773 101.15039062 C139.26282711 108.18609783 139.27337888 115.22172833 139.2891714 122.25741613 C139.30227084 128.31026963 139.30761063 134.36309812 139.30697232 140.41596568 C139.30671806 144.02562258 139.30952952 147.63521126 139.32015038 151.24485397 C139.33168037 155.27315217 139.32706985 159.30127964 139.32104492 163.32958984 C139.32666443 164.51634811 139.33228394 165.70310638 139.33807373 166.92582703 C139.28308814 181.40578327 134.67304398 195.10120783 125.078125 206.16796875 C108.0886314 222.45308865 85.73309564 222.33283451 63.51171875 222.30078125 C61.92266818 222.30196867 60.33361783 222.30349258 58.74456787 222.30532837 C53.66823565 222.30904736 48.59194898 222.30152189 43.515625 222.29296875 C41.77316289 222.29069673 40.03070073 222.28845888 38.28823853 222.28625488 C26.55141382 222.26959569 14.81480682 222.22724984 3.078125 222.16796875 C1.75981689 222.16172485 0.44150879 222.15548096 -0.91674805 222.14904785 C-7.29895153 222.11558742 -13.68000538 222.06102662 -20.06149292 221.95843506 C-21.80972184 221.93196761 -23.55805299 221.91142084 -25.306427 221.89752197 C-40.923686 221.7582733 -55.10269807 219.90878415 -67.921875 210.16796875 C-68.87900391 209.48154297 -68.87900391 209.48154297 -69.85546875 208.78125 C-73.11552976 206.3029782 -74.79474265 204.11293198 -75.921875 200.16796875 C-76.581875 200.16796875 -77.241875 200.16796875 -77.921875 200.16796875 C-79.05199152 197.96212635 -80.17603288 195.75351848 -81.296875 193.54296875 C-81.61398438 192.92550781 -81.93109375 192.30804688 -82.2578125 191.671875 C-82.5671875 191.05957031 -82.8765625 190.44726562 -83.1953125 189.81640625 C-83.47810059 189.26130371 -83.76088867 188.70620117 -84.05224609 188.13427734 C-86.1054036 183.49190492 -87.17207935 179.40855298 -87.18930054 174.32614136 C-87.19783051 173.18249619 -87.20636047 172.03885101 -87.21514893 170.86054993 C-87.21424255 169.61992294 -87.21333618 168.37929596 -87.21240234 167.10107422 C-87.21911957 165.78323441 -87.22583679 164.46539459 -87.23275757 163.10762024 C-87.25038062 159.50189421 -87.25511155 155.8962632 -87.25638914 152.29049826 C-87.25781407 150.03266643 -87.26209026 147.7748585 -87.26738358 145.51703262 C-87.28587581 137.62527188 -87.29405572 129.73357856 -87.29248047 121.84179688 C-87.29128119 114.51069857 -87.31234331 107.17989569 -87.3439678 99.84887207 C-87.37021943 93.53607528 -87.38084397 87.22337441 -87.37956965 80.91052353 C-87.37906236 77.14863639 -87.38461435 73.38701159 -87.40592575 69.62517929 C-87.4254573 66.08078924 -87.42533248 62.53690762 -87.41089249 58.9924984 C-87.40784304 57.09115983 -87.42437838 55.1898204 -87.44177246 53.28855896 C-87.33342343 38.29912791 -81.98647044 26.23962504 -71.734375 15.41796875 C-52.64588735 -3.32930487 -24.7189962 0.0076204 0 0 Z " fill="#242C39" transform="translate(307.921875,75.83203125)"/>
<path d="M0 0 C20.46 0 40.92 0 62 0 C62 4.95 62 9.9 62 15 C47.15 15 32.3 15 17 15 C17 22.92 17 30.84 17 39 C30.2 39 43.4 39 57 39 C57 43.95 57 48.9 57 54 C43.8 54 30.6 54 17 54 C17 62.91 17 71.82 17 81 C31.85 81 46.7 81 62 81 C62 85.95 62 90.9 62 96 C41.54 96 21.08 96 0 96 C0 64.32 0 32.64 0 0 Z " fill="#FBFCFC" transform="translate(273,139)"/>
<path d="M0 0 C20.79 0 41.58 0 63 0 C63 0.33 63 0.66 63 1 C42.54 1 22.08 1 1 1 C1 32.68 1 64.36 1 97 C21.46 97 41.92 97 63 97 C63 92.05 63 87.1 63 82 C63.59792169 72.68950511 64.80936048 67.59395029 71.4921875 60.96484375 C75.11689132 58.12492783 78.50417461 56.80815011 83 56 C83.88558594 55.81695312 84.77117187 55.63390625 85.68359375 55.4453125 C89.93538931 54.87440002 94.09149625 54.89309366 98.375 54.9375 C99.62216797 54.94426758 99.62216797 54.94426758 100.89453125 54.95117188 C102.92971897 54.96286836 104.96486923 54.98080065 107 55 C106.88465396 53.43675768 106.75724874 51.87440317 106.625 50.3125 C106.52058594 49.00732422 106.52058594 49.00732422 106.4140625 47.67578125 C105.98068257 44.87516565 105.14504555 42.58333448 104 40 C101.22890693 39.94607603 98.45886182 39.90636545 95.6875 39.875 C94.90181641 39.85824219 94.11613281 39.84148437 93.30664062 39.82421875 C92.54931641 39.81777344 91.79199219 39.81132812 91.01171875 39.8046875 C90.31522217 39.79421387 89.61872559 39.78374023 88.90112305 39.77294922 C86.668827 39.89425405 86.668827 39.89425405 84 42 C82.78715124 45.05429073 82.78715124 45.05429073 82 48 C79.87465341 47.85930804 77.74972471 47.71229079 75.625 47.5625 C74.44164062 47.48128906 73.25828125 47.40007812 72.0390625 47.31640625 C69 47 69 47 67 46 C67.33 43.36 67.66 40.72 68 38 C68.66 38 69.32 38 70 38 C70.37125 36.88625 70.37125 36.88625 70.75 35.75 C73.08197898 30.61964624 76.80300761 27.90055247 81.9140625 25.76953125 C90.57255587 23.61038797 101.51936675 23.27029676 109.75 27 C116.43727629 31.12693799 120.95325769 36.40184884 123 44 C123.31130136 47.2853651 123.34807165 50.560829 123.37890625 53.859375 C123.39590073 54.80379456 123.4128952 55.74821411 123.43040466 56.72125244 C123.48332 59.73076745 123.52368503 62.74027284 123.5625 65.75 C123.60672015 68.74537126 123.65373226 71.74064704 123.70530701 74.73590088 C123.73674454 76.59467345 123.76378459 78.45352784 123.78553772 80.31243896 C123.87875163 86.26045402 124.34135003 92.08708187 125 98 C119.72 98 114.44 98 109 98 C108.505 94.04 108.505 94.04 108 90 C107.49210937 90.39832031 106.98421875 90.79664063 106.4609375 91.20703125 C105.77257812 91.73683594 105.08421875 92.26664062 104.375 92.8125 C103.70210938 93.33457031 103.02921875 93.85664063 102.3359375 94.39453125 C94.74722346 99.61018589 88.04332612 100.0285328 79 99 C73.30212857 96.97984558 69.35015271 92.9205368 66 88 C66 86.68 66 85.36 66 84 C65.34 84 64.68 84 64 84 C64 88.62 64 93.24 64 98 C42.88 98 21.76 98 0 98 C0 65.66 0 33.32 0 0 Z " fill="#3D94E6" transform="translate(272,138)"/>
<path d="M0 0 C20.79 0 41.58 0 63 0 C63 0.33 63 0.66 63 1 C42.54 1 22.08 1 1 1 C1 32.68 1 64.36 1 97 C21.46 97 41.92 97 63 97 C63 92.05 63 87.1 63 82 C63.59792169 72.68950511 64.80936048 67.59395029 71.4921875 60.96484375 C75.11689132 58.12492783 78.50417461 56.80815011 83 56 C83.88558594 55.81695312 84.77117187 55.63390625 85.68359375 55.4453125 C89.93538931 54.87440002 94.09149625 54.89309366 98.375 54.9375 C99.62216797 54.94426758 99.62216797 54.94426758 100.89453125 54.95117188 C102.92971897 54.96286836 104.96486923 54.98080065 107 55 C107 55.66 107 56.32 107 57 C105.79601562 57.06058594 104.59203125 57.12117188 103.3515625 57.18359375 C101.77602923 57.26799732 100.20050904 57.35264541 98.625 57.4375 C97.8309375 57.47681641 97.036875 57.51613281 96.21875 57.55664062 C91.97398779 57.68893404 91.97398779 57.68893404 88 59 C89.98 59.33 91.96 59.66 94 60 C94 59.34 94 58.68 94 58 C94.66 58.33 95.32 58.66 96 59 C96 60.65 96 62.3 96 64 C99.96 64 103.92 64 108 64 C109.03590199 69.05002222 109.10251672 73.87416389 109 79 C108.34 79 107.68 79 107 79 C107 74.38 107 69.76 107 65 C94.46201003 65.27207758 94.46201003 65.27207758 83.31640625 70.359375 C81.49458992 72.62988794 81.2035149 75.04836093 80.72265625 77.8671875 C81.15887592 81.22177821 82.56988469 82.71167423 85 85 C88.12914623 85.67814467 88.12914623 85.67814467 91.5 85.4375 C92.6240625 85.41558594 93.748125 85.39367187 94.90625 85.37109375 C97.79138309 85.02502349 99.54697206 84.49706852 102 83 C101.43454163 86.95820859 100.19097652 89.6659053 98 93 C99.65 92.67 101.3 92.34 103 92 C103.495 90.02 103.495 90.02 104 88 C105.98 88.99 105.98 88.99 108 90 C106.79658011 90.94379885 105.58696299 91.87969702 104.375 92.8125 C103.70210938 93.33457031 103.02921875 93.85664063 102.3359375 94.39453125 C94.74722346 99.61018589 88.04332612 100.0285328 79 99 C73.30212857 96.97984558 69.35015271 92.9205368 66 88 C66 86.68 66 85.36 66 84 C65.34 84 64.68 84 64 84 C64 88.62 64 93.24 64 98 C42.88 98 21.76 98 0 98 C0 65.66 0 33.32 0 0 Z " fill="#5A9CDA" transform="translate(272,138)"/>
<path d="M0 0 C1.33793828 12.98295668 1.33793828 12.98295668 -1.546875 17.33203125 C-6.84561811 21.30608858 -12.59633807 21.91248375 -19.0859375 21.578125 C-21.99044368 21.00189589 -23.3233026 20.58608339 -25.375 18.5 C-27.09728135 14.79047095 -27.57628971 12.83784595 -26.76953125 8.89453125 C-24.94207552 4.39546512 -21.19488852 2.51209508 -16.9375 0.6875 C-11.28535779 -0.29938197 -5.72194985 -0.15487985 0 0 Z " fill="#1F2D3B" transform="translate(379,203)"/>
<path d="M0 0 C0.67675781 -0.01611328 1.35351562 -0.03222656 2.05078125 -0.04882812 C6.99311599 -0.05370222 6.99311599 -0.05370222 9.34375 1.64453125 C11.88280324 5.30728711 12.74041529 7.05651141 12.625 11.5 C12.60695313 12.40105469 12.58890625 13.30210937 12.5703125 14.23046875 C12.54710937 14.91753906 12.52390625 15.60460937 12.5 16.3125 C11.33984375 16.34988281 10.1796875 16.38726562 8.984375 16.42578125 C-0.20848835 16.78852773 -8.64080092 17.640217 -17.5 20.3125 C-18.83146692 20.65321207 -20.16414754 20.9894101 -21.5 21.3125 C-21.005 19.8275 -21.005 19.8275 -20.5 18.3125 C-18.65234375 17.58203125 -18.65234375 17.58203125 -16.4375 17.125 C-15.70402344 16.96644531 -14.97054688 16.80789062 -14.21484375 16.64453125 C-13.64894531 16.53496094 -13.08304687 16.42539063 -12.5 16.3125 C-12.5 15.3225 -12.5 14.3325 -12.5 13.3125 C-13.16 12.9825 -13.82 12.6525 -14.5 12.3125 C-13.51 12.3125 -12.52 12.3125 -11.5 12.3125 C-11.70625 11.590625 -11.9125 10.86875 -12.125 10.125 C-12.56824615 6.80065384 -12.08255263 5.24022236 -10.5 2.3125 C-6.88536441 -0.09725706 -4.1778074 -0.01989432 0 0 Z " fill="#212C38" transform="translate(366.5,176.6875)"/>
<path d="M0 0 C6.50594036 3.01051277 12.01748426 8.01890782 14.82788086 14.68286133 C16.03975281 19.18171114 16.10116242 23.3840364 16.14453125 28.0234375 C16.16152573 28.96785706 16.1785202 29.91227661 16.19602966 30.88531494 C16.248945 33.89482995 16.28931003 36.90433534 16.328125 39.9140625 C16.37234515 42.90943376 16.41935726 45.90470954 16.47093201 48.89996338 C16.50236954 50.75873595 16.52940959 52.61759034 16.55116272 54.47650146 C16.64437663 60.42451652 17.10697503 66.25114437 17.765625 72.1640625 C12.485625 72.1640625 7.205625 72.1640625 1.765625 72.1640625 C1.435625 69.5240625 1.105625 66.8840625 0.765625 64.1640625 C1.425625 64.1640625 2.085625 64.1640625 2.765625 64.1640625 C3.425625 65.8140625 4.085625 67.4640625 4.765625 69.1640625 C8.065625 69.4940625 11.365625 69.8240625 14.765625 70.1640625 C14.60570068 69.22038818 14.44577637 68.27671387 14.28100586 67.30444336 C13.6002317 62.51668411 13.57413535 57.74675741 13.51953125 52.91796875 C13.48660168 50.92642775 13.45338989 48.9348914 13.41992188 46.94335938 C13.37253799 43.83198116 13.32805011 40.72062298 13.28881836 37.60913086 C13.24891051 34.58688829 13.1974285 31.56500811 13.14453125 28.54296875 C13.1361171 27.62189835 13.12770294 26.70082794 13.11903381 25.75184631 C13.01459388 20.24345351 12.30785969 15.45794988 10.765625 10.1640625 C9.445625 10.4940625 8.125625 10.8240625 6.765625 11.1640625 C6.270625 8.6890625 6.270625 8.6890625 5.765625 6.1640625 C-5.01171969 1.16587366 -15.60424124 1.73912788 -27.234375 2.1640625 C-19.77379934 -2.8096546 -8.53487806 -2.20587428 0 0 Z " fill="#498FD0" transform="translate(379.234375,163.8359375)"/>
<path d="M0 0 C2.48523467 -0.0006752 4.97046928 -0.00164702 7.45570374 -0.00289917 C12.63201535 -0.00436405 17.80830957 -0.00225951 22.98461914 0.00244141 C29.60043935 0.00815896 36.21621917 0.00483921 42.83203793 -0.00113106 C47.951119 -0.00475162 53.07019056 -0.00359156 58.18927193 -0.00100327 C60.62878995 -0.00033922 63.06830886 -0.00114403 65.50782585 -0.00348282 C68.9166174 -0.00603629 72.32534411 -0.00213183 75.73413086 0.00341797 C76.72810379 0.00139374 77.72207672 -0.00063049 78.74617004 -0.00271606 C84.87837961 0.01567984 90.88360273 0.40513765 96.97265625 1.1328125 C96.97265625 1.4628125 96.97265625 1.7928125 96.97265625 2.1328125 C94.33265625 2.1328125 91.69265625 2.1328125 88.97265625 2.1328125 C88.64265625 2.7928125 88.31265625 3.4528125 87.97265625 4.1328125 C86.98265625 3.8028125 85.99265625 3.4728125 84.97265625 3.1328125 C83.23478764 3.03105367 81.49332203 2.98652911 79.7525177 2.97459412 C78.13081413 2.95991089 78.13081413 2.95991089 76.47634888 2.94493103 C74.69718582 2.93629784 74.69718582 2.93629784 72.88208008 2.92749023 C71.63318497 2.91759064 70.38428986 2.90769104 69.09754944 2.89749146 C65.67222158 2.8712953 62.24691714 2.84943672 58.82155061 2.82948947 C55.24206676 2.80762478 51.66262531 2.78023845 48.08317566 2.75343323 C41.30468262 2.70351288 34.52616604 2.65857161 27.74762696 2.61541086 C20.0306267 2.56603287 12.31366897 2.51111682 4.59670985 2.45573127 C-11.27793538 2.34192132 -27.15261972 2.23508013 -43.02734375 2.1328125 C-43.02734375 1.8028125 -43.02734375 1.4728125 -43.02734375 1.1328125 C-28.6839289 0.03760931 -14.37925626 -0.01387864 0 0 Z " fill="#74757B" transform="translate(308.02734375,75.8671875)"/>
<path d="M0 0 C37.95 0 75.9 0 115 0 C115.495 1.485 115.495 1.485 116 3 C106.04680532 3.02317862 96.09361707 3.04094327 86.14040089 3.05181217 C81.51863972 3.0570289 76.89689702 3.06410463 72.27514648 3.07543945 C67.81422939 3.08631127 63.35333006 3.09228596 58.89240074 3.09487724 C57.19117643 3.09672374 55.48995308 3.10032947 53.78873634 3.10573006 C51.40446502 3.11299745 49.02026696 3.11398853 46.63598633 3.11352539 C45.93395584 3.11712067 45.23192535 3.12071594 44.50862122 3.12442017 C40.86590143 3.11677234 37.54925719 2.79660721 34 2 C31.3522398 1.85261987 28.72369019 1.74527246 26.07421875 1.68359375 C25.32662796 1.66281265 24.57903717 1.64203156 23.80879211 1.62062073 C21.43511604 1.55555811 19.06133513 1.4964429 16.6875 1.4375 C15.07225505 1.39427354 13.45702047 1.35065796 11.84179688 1.30664062 C7.89463701 1.19992149 3.94737233 1.09853381 0 1 C0 0.67 0 0.34 0 0 Z " fill="#161622" transform="translate(272,295)"/>
<path d="M0 0 C0.97259766 -0.01224609 1.94519531 -0.02449219 2.94726562 -0.03710938 C8.43311846 -0.04825193 13.00560769 0.35902196 18.1875 2.1875 C18.1875 2.8475 18.1875 3.5075 18.1875 4.1875 C19.5075 3.8575 20.8275 3.5275 22.1875 3.1875 C22.6825 6.1575 22.6825 6.1575 23.1875 9.1875 C21.85286458 8.24348958 20.51822917 7.29947917 19.18359375 6.35546875 C12.95894209 2.71325574 8.01837557 1.63618572 0.875 1.6875 C0.038479 1.68814453 -0.79804199 1.68878906 -1.65991211 1.68945312 C-8.42602383 1.8525395 -13.10908359 3.54978566 -18.8125 7.1875 C-19.4725 7.1875 -20.1325 7.1875 -20.8125 7.1875 C-21.121875 7.97125 -21.43125 8.755 -21.75 9.5625 C-22.8125 12.1875 -22.8125 12.1875 -23.8125 14.1875 C-24.4725 14.1875 -25.1325 14.1875 -25.8125 14.1875 C-26.1425 16.8275 -26.4725 19.4675 -26.8125 22.1875 C-22.8525 22.5175 -18.8925 22.8475 -14.8125 23.1875 C-14.8125 23.5175 -14.8125 23.8475 -14.8125 24.1875 C-19.1025 24.1875 -23.3925 24.1875 -27.8125 24.1875 C-29.8125 20.1875 -29.8125 20.1875 -29.1328125 17.828125 C-28.73835938 17.03921875 -28.34390625 16.2503125 -27.9375 15.4375 C-27.54820312 14.63828125 -27.15890625 13.8390625 -26.7578125 13.015625 C-26.44585937 12.41234375 -26.13390625 11.8090625 -25.8125 11.1875 C-25.1525 11.1875 -24.4925 11.1875 -23.8125 11.1875 C-23.8125 10.465625 -23.8125 9.74375 -23.8125 9 C-22.27559659 4.67745915 -18.82876595 3.12484535 -14.8125 1.1875 C-9.95401166 -0.28723547 -5.03271647 0.00329582 0 0 Z " fill="#173750" transform="translate(365.8125,161.8125)"/>
<path d="M0 0 C2.475 0.99 2.475 0.99 5 2 C5 2.99 5 3.98 5 5 C5.66 5 6.32 5 7 5 C8.12804955 11.41904355 8.21958814 17.77057764 8.31640625 24.27734375 C8.33718735 25.4438295 8.35796844 26.61031525 8.37937927 27.81214905 C8.44450911 31.52054224 8.50358917 35.22900332 8.5625 38.9375 C8.60572001 41.45899126 8.6493354 43.98047577 8.69335938 46.50195312 C8.80015284 52.66789799 8.9019857 58.83390967 9 65 C8.67 65 8.34 65 8 65 C6.39564401 58.14323001 5.70833545 51.6761243 5.69140625 44.64453125 C5.66626922 42.70377274 5.6408709 40.7630176 5.61523438 38.82226562 C5.58644149 35.80738036 5.56237644 32.79255307 5.54370117 29.77758789 C5.52199768 26.83712191 5.48258778 23.89727966 5.44140625 20.95703125 C5.44129044 20.0620845 5.44117462 19.16713776 5.4410553 18.24507141 C5.35429334 12.7285631 4.51282928 8.9229241 2 4 C1.608125 3.195625 1.21625 2.39125 0.8125 1.5625 C0.4103125 0.7890625 0.4103125 0.7890625 0 0 Z " fill="#153554" transform="translate(389,171)"/>
<path d="M0 0 C0 4.95 0 9.9 0 15 C-0.99 15 -1.98 15 -3 15 C-3 11.04 -3 7.08 -3 3 C-11.45803356 2.54565396 -11.45803356 2.54565396 -19 6 C-20.40466953 8.05093145 -20.40466953 8.05093145 -21 10 C-21.66 10 -22.32 10 -23 10 C-23 12.97 -23 15.94 -23 19 C-25.0625 17.5 -25.0625 17.5 -27 15 C-27.16525597 9.79443694 -26.9107712 7.99751131 -23.375 4.125 C-15.77130389 -0.66251236 -8.75010086 -0.18041445 0 0 Z " fill="#1D2D3D" transform="translate(379,203)"/>
<path d="M0 0 C0.495 3.96 0.495 3.96 1 8 C5.62 8 10.24 8 15 8 C15 8.33 15 8.66 15 9 C7.08 9.495 7.08 9.495 -1 10 C-1 8.68 -1 7.36 -1 6 C-3.02045442 6.60183749 -5.02111039 7.27306096 -7 8 C-7.33 8.66 -7.66 9.32 -8 10 C-16.50392982 11.60451506 -26.509579 12.993614 -34 8 C-33.67 7.34 -33.34 6.68 -33 6 C-32.48824219 6.32097656 -31.97648437 6.64195312 -31.44921875 6.97265625 C-25.55898362 9.44336094 -17.10352723 9.09486714 -11.12109375 6.984375 C-8.17286668 5.37183565 -5.7277738 3.75427042 -3.390625 1.33203125 C-2 0 -2 0 0 0 Z " fill="#1A3959" transform="translate(380,228)"/>
<path d="M0 0 C0 0.99 0 1.98 0 3 C-0.763125 3.20625 -1.52625 3.4125 -2.3125 3.625 C-5.82229103 5.42070704 -6.52599781 7.43136312 -8 11 C-8.66 11 -9.32 11 -10 11 C-10 12.98 -10 14.96 -10 17 C-6.37 17 -2.74 17 1 17 C1.33 15.35 1.66 13.7 2 12 C2.99 12.33 3.98 12.66 5 13 C4.01 15.31 3.02 17.62 2 20 C-0.12534659 19.85930804 -2.25027529 19.71229079 -4.375 19.5625 C-5.55835938 19.48128906 -6.74171875 19.40007812 -7.9609375 19.31640625 C-11 19 -11 19 -13 18 C-12.67 15.36 -12.34 12.72 -12 10 C-11.34 10 -10.68 10 -10 10 C-9.7525 9.2575 -9.505 8.515 -9.25 7.75 C-7.45099154 3.7921814 -4.68208707 0 0 0 Z " fill="#498BCB" transform="translate(352,166)"/>
<path d="M0 0 C1.43088528 2.86177057 0.59991697 4.93375773 0 8 C-0.66 8 -1.32 8 -2 8 C-2.41640288 15.2484945 -1.44166784 21.16914355 1 28 C-1 26.25 -1 26.25 -3 24 C-3 22.68 -3 21.36 -3 20 C-3.66 20 -4.32 20 -5 20 C-5 24.62 -5 29.24 -5 34 C-5.33 34 -5.66 34 -6 34 C-6.61566874 7.3552252 -6.61566874 7.3552252 0 0 Z " fill="#4678A7" transform="translate(341,202)"/>
<path d="M0 0 C0.83104248 -0.00451172 1.66208496 -0.00902344 2.51831055 -0.01367188 C8.31181754 0.00027019 13.99663051 0.45646395 19.75 1.125 C19.75 1.455 19.75 1.785 19.75 2.125 C17.11 2.125 14.47 2.125 11.75 2.125 C11.42 2.785 11.09 3.445 10.75 4.125 C9.76 3.795 8.77 3.465 7.75 3.125 C6.38484686 3.01234453 5.01522788 2.94917414 3.64575195 2.91967773 C2.82512772 2.89973251 2.00450348 2.87978729 1.15901184 2.85923767 C-0.1629998 2.83416893 -0.1629998 2.83416893 -1.51171875 2.80859375 C-2.87040825 2.7774221 -2.87040825 2.7774221 -4.25654602 2.74562073 C-7.15012016 2.68023442 -10.04378507 2.62129096 -12.9375 2.5625 C-14.89909793 2.5193044 -16.86068668 2.47568977 -18.82226562 2.43164062 C-23.63141739 2.32456418 -28.44066046 2.22326586 -33.25 2.125 C-33.25 1.795 -33.25 1.465 -33.25 1.125 C-22.16947705 0.52180373 -11.09869392 0.02426165 0 0 Z " fill="#666671" transform="translate(385.25,75.875)"/>
<path d="M0 0 C2.58750318 0.51750064 4.4576459 1.24407782 6.8125 2.5 C12.66658655 5.14336507 19.66911528 4.76371215 26 5 C26 4.34 26 3.68 26 3 C27.32 3.33 28.64 3.66 30 4 C23.17014961 7.95080576 16.71301326 7.90644387 9 7 C5.15003786 5.5064802 1.88654293 3.77308585 0 0 Z " fill="#4787C3" transform="translate(342,230)"/>
<path d="M0 0 C0 4.95 0 9.9 0 15 C-0.99 15 -1.98 15 -3 15 C-3 11.04 -3 7.08 -3 3 C-8.61 3 -14.22 3 -20 3 C-13.76674288 -1.15550474 -7.30834649 -0.07308346 0 0 Z " fill="#224C72" transform="translate(379,203)"/>
<path d="M0 0 C5.94 0 11.88 0 18 0 C18.66 1.98 19.32 3.96 20 6 C20.66 6 21.32 6 22 6 C22 9.96 22 13.92 22 18 C21.67 18 21.34 18 21 18 C20.95101563 17.33613281 20.90203125 16.67226562 20.8515625 15.98828125 C20.77679688 15.10527344 20.70203125 14.22226563 20.625 13.3125 C20.55539062 12.44238281 20.48578125 11.57226562 20.4140625 10.67578125 C20.03034416 7.53202437 20.03034416 7.53202437 18 3 C12.06 3 6.12 3 0 3 C0 2.01 0 1.02 0 0 Z " fill="#4482BB" transform="translate(358,175)"/>
<path d="M0 0 C0.83853516 -0.020625 1.67707031 -0.04125 2.54101562 -0.0625 C8.08265254 -0.09710819 11.87624399 0.71173575 16.8125 3.25 C13.80218256 4.18423645 12.94599732 4.29449911 9.8125 3.25 C7.96639468 3.16760831 6.11744836 3.14256641 4.26953125 3.15234375 C2.65981445 3.15717773 2.65981445 3.15717773 1.01757812 3.16210938 C-0.10197266 3.17048828 -1.22152344 3.17886719 -2.375 3.1875 C-4.07172852 3.19426758 -4.07172852 3.19426758 -5.80273438 3.20117188 C-8.59770927 3.21296502 -11.3925782 3.2294235 -14.1875 3.25 C-9.1932055 -0.07952967 -5.87686074 0.03532298 0 0 Z " fill="#417CB2" transform="translate(366.1875,162.75)"/>
<path d="M0 0 C2.32221873 3.77360544 2 5.01199411 2 10 C-3.28 10 -8.56 10 -14 10 C-14.33 7.36 -14.66 4.72 -15 2 C-14.34 2 -13.68 2 -13 2 C-12.34 3.65 -11.68 5.3 -11 7 C-7.37 7.33 -3.74 7.66 0 8 C0 5.36 0 2.72 0 0 Z " fill="#437EB7" transform="translate(395,226)"/>
<path d="M0 0 C0.33 2.64 0.66 5.28 1 8 C5.62 8 10.24 8 15 8 C15 8.33 15 8.66 15 9 C7.08 9.495 7.08 9.495 -1 10 C-1 8.68 -1 7.36 -1 6 C-2.65 6.33 -4.3 6.66 -6 7 C-5.37162381 3.35541809 -4.14650034 0 0 0 Z " fill="#162C44" transform="translate(380,228)"/>
<path d="M0 0 C0.93065133 2.60582371 1.14917407 3.64198224 0.0625 6.25 C-0.4634375 7.11625 -0.4634375 7.11625 -1 8 C-1.66 8 -2.32 8 -3 8 C-3.33 10.64 -3.66 13.28 -4 16 C-0.04 16.33 3.92 16.66 8 17 C8 17.33 8 17.66 8 18 C3.71 18 -0.58 18 -5 18 C-7 14 -7 14 -6.3203125 11.640625 C-5.92585938 10.85171875 -5.53140625 10.0628125 -5.125 9.25 C-4.73570312 8.45078125 -4.34640625 7.6515625 -3.9453125 6.828125 C-3.63335937 6.22484375 -3.32140625 5.6215625 -3 5 C-2.34 5 -1.68 5 -1 5 C-0.67 3.35 -0.34 1.7 0 0 Z " fill="#204263" transform="translate(343,168)"/>
<path d="M0 0 C1.485 0.99 1.485 0.99 3 2 C6.06612399 2.31855376 6.06612399 2.31855376 9.4375 2.25 C10.57058594 2.25515625 11.70367187 2.2603125 12.87109375 2.265625 C15.83525691 2.01398568 17.50313671 1.54596941 20 0 C20 0.66 20 1.32 20 2 C19.34 2 18.68 2 18 2 C18 2.66 18 3.32 18 4 C17.01 4 16.02 4 15 4 C15 4.66 15 5.32 15 6 C9.5610835 6.21755666 5.12919186 6.10428384 0 4 C0 2.68 0 1.36 0 0 Z " fill="#4280BD" transform="translate(354,221)"/>
<path d="M0 0 C1.02770508 0.0009668 1.02770508 0.0009668 2.07617188 0.00195312 C7.15614073 0.04682037 7.15614073 0.04682037 9.4375 1.1875 C9.4375 1.8475 9.4375 2.5075 9.4375 3.1875 C8.15875 2.98125 6.88 2.775 5.5625 2.5625 C0.34790236 2.00054653 -4.64387902 2.23133716 -9.5625 4.1875 C-11.31818004 6.64498398 -11.31818004 6.64498398 -11.5625 9.1875 C-12.5625 7.1875 -12.5625 7.1875 -11.8125 4.6875 C-9.18607504 -0.56534993 -5.18686258 -0.09323594 0 0 Z " fill="#1A3854" transform="translate(366.5625,176.8125)"/>
<path d="M0 0 C3 3 3 3 3.29296875 5.48046875 C3.1953125 7.98697917 3.09765625 10.49348958 3 13 C-2.61 13 -8.22 13 -14 13 C-14 12.67 -14 12.34 -14 12 C-9.05 11.67 -4.1 11.34 1 11 C0.67 7.37 0.34 3.74 0 0 Z " fill="#153C60" transform="translate(376,180)"/>
<path d="M0 0 C0.99 0 1.98 0 3 0 C2.2859059 7.14094101 -0.510389 13.29461914 -6 18 C-6.33 16.68 -6.66 15.36 -7 14 C-6.01 13.67 -5.02 13.34 -4 13 C-2.98245132 11.1346755 -2.98245132 11.1346755 -2.3125 8.9375 C-2.06113281 8.20402344 -1.80976563 7.47054688 -1.55078125 6.71484375 C-1.36902344 6.14894531 -1.18726563 5.58304687 -1 5 C-0.34 5 0.32 5 1 5 C0.67 3.35 0.34 1.7 0 0 Z " fill="#484855" transform="translate(441,260)"/>
<path d="M0 0 C0.66 0.33 1.32 0.66 2 1 C1.2884375 1.495 1.2884375 1.495 0.5625 2 C-1.80560219 5.03117081 -1.90125795 8.22501556 -2 12 C-1.66499921 14.36693717 -1.66499921 14.36693717 -1 16 C-3.0625 14.5 -3.0625 14.5 -5 12 C-5 7.31100986 -4.92192658 5.11748676 -1.9375 1.5 C-1.298125 1.005 -0.65875 0.51 0 0 Z " fill="#193E61" transform="translate(357,206)"/>
<path d="M0 0 C1.32 0.33 2.64 0.66 4 1 C3.36578125 1.68449219 2.7315625 2.36898437 2.078125 3.07421875 C-0.32131841 6.4523825 -0.75518356 8.73026441 -1.25 12.8125 C-1.39953125 13.97394531 -1.5490625 15.13539063 -1.703125 16.33203125 C-1.80109375 17.21246094 -1.8990625 18.09289062 -2 19 C-2.33 19 -2.66 19 -3 19 C-3.31461385 11.90370975 -3.44572039 6.31715405 0 0 Z " fill="#18334D" transform="translate(338,201)"/>
<path d="M0 0 C2.475 0.99 2.475 0.99 5 2 C5 2.99 5 3.98 5 5 C5.66 5 6.32 5 7 5 C7 7.64 7 10.28 7 13 C4.34222951 10.34222951 3.43046279 7.45695173 2 4 C1.34711373 2.65986503 0.68774405 1.32258472 0 0 Z " fill="#173652" transform="translate(389,171)"/>
<path d="M0 0 C5.01113235 1.4317521 6.94469549 3.98445693 10 8 C8.35 7.67 6.7 7.34 5 7 C5 6.34 5 5.68 5 5 C3.02 4.34 1.04 3.68 -1 3 C-0.67 2.01 -0.34 1.02 0 0 Z " fill="#494B5A" transform="translate(421,84)"/>
<path d="M0 0 C2.0625 0.4375 2.0625 0.4375 4 1 C3.2575 2.0828125 3.2575 2.0828125 2.5 3.1875 C0.89393038 6.19888054 0.73646711 7.66191669 1 11 C1 11.99 1 12.98 1 14 C0.34 13.67 -0.32 13.34 -1 13 C-1.02686553 11.02090602 -1.04633375 9.04171029 -1.0625 7.0625 C-1.07410156 5.96035156 -1.08570313 4.85820312 -1.09765625 3.72265625 C-1 1 -1 1 0 0 Z " fill="#468DCC" transform="translate(352,207)"/>
<path d="M0 0 C0 0.33 0 0.66 0 1 C-1.91666667 1.47916667 -3.83333333 1.95833333 -5.75 2.4375 C-6.81734375 2.70433594 -7.8846875 2.97117188 -8.984375 3.24609375 C-10.78645833 3.69661458 -12.58854167 4.14713542 -14.390625 4.59765625 C-14.92171875 4.73042969 -15.4528125 4.86320313 -16 5 C-15.67 4.01 -15.34 3.02 -15 2 C-10.06208162 -0.34551123 -5.33555495 -0.2134222 0 0 Z " fill="#193758" transform="translate(361,193)"/>
<path d="M0 0 C0.66 0 1.32 0 2 0 C2.05399736 1.45792884 2.09279177 2.91642712 2.125 4.375 C2.14820313 5.18710938 2.17140625 5.99921875 2.1953125 6.8359375 C2 9 2 9 0 11 C-2.125 5.375 -2.125 5.375 -1 2 C-0.67 1.34 -0.34 0.68 0 0 Z " fill="#454650" transform="translate(444,249)"/>
<path d="M0 0 C-0.33 0.66 -0.66 1.32 -1 2 C-4.45043117 3.15014372 -7.35282355 4 -11 4 C-7.39987093 0.15158617 -5.25169925 -1.6298377 0 0 Z " fill="#4583BF" transform="translate(353,197)"/>
<path d="M0 0 C0.33 2.64 0.66 5.28 1 8 C-1 5 -1 5 -1 3 C-1.66 3 -2.32 3 -3 3 C-3 3.66 -3 4.32 -3 5 C-3.99 4.67 -4.98 4.34 -6 4 C-2.25 0 -2.25 0 0 0 Z " fill="#183759" transform="translate(380,228)"/>
<path d="M0 0 C3.67230705 3.07999946 4.56802365 5.2482602 5 10 C4.34 10 3.68 10 3 10 C2.01 6.7 1.02 3.4 0 0 Z " fill="#4886C1" transform="translate(389,172)"/>
<path d="M0 0 C2.64 0 5.28 0 8 0 C8.33 1.98 8.66 3.96 9 6 C6 4 3 2 0 0 Z " fill="#1C3C5A" transform="translate(380,165)"/>
<path d="M0 0 C1.32 0.66 2.64 1.32 4 2 C-1.75 7 -1.75 7 -4 7 C-3.67 6.01 -3.34 5.02 -3 4 C-2.34 4 -1.68 4 -1 4 C-0.67 2.68 -0.34 1.36 0 0 Z " fill="#4684BE" transform="translate(376,226)"/>
<path d="M0 0 C0.33 1.32 0.66 2.64 1 4 C-1.35953094 6.35953094 -2.77895617 6.49141413 -6 7 C-4.02 4.69 -2.04 2.38 0 0 Z " fill="#63636D" transform="translate(241,87)"/>
<path d="M0 0 C-3.51187196 2.40814077 -5.72656908 3.36629408 -10 3 C-4.375 -1.3125 -4.375 -1.3125 0 0 Z " fill="#76747D" transform="translate(257,81)"/>
</svg>
